<svg xmlns="http://www.w3.org/2000/svg" viewBox="0 0 403 322" role="img" aria-labelledby="title desc" shape-rendering="geometricPrecision">
  <title id="title">Luxor logo</title>
  <desc id="desc">Gold Luxor wordmark with a stepped pyramid mark and blue central motif.</desc>
  <defs>
    <linearGradient id="gold" x1="76" y1="41" x2="314" y2="245" gradientUnits="userSpaceOnUse">
      <stop offset="0" stop-color="#f2dfae"/>
      <stop offset="0.2" stop-color="#cfb06d"/>
      <stop offset="0.48" stop-color="#9a783f"/>
      <stop offset="0.72" stop-color="#e0c78f"/>
      <stop offset="1" stop-color="#8d6b34"/>
    </linearGradient>
    <linearGradient id="blue" x1="148" y1="79" x2="236" y2="155" gradientUnits="userSpaceOnUse">
      <stop offset="0" stop-color="#5ed3ff"/>
      <stop offset="0.5" stop-color="#11ace4"/>
      <stop offset="1" stop-color="#0f76bf"/>
    </linearGradient>
    <filter id="softGlow" x="-10%" y="-10%" width="120%" height="120%">
      <feDropShadow dx="0" dy="0" stdDeviation="1.2" flood-color="#e2c88d" flood-opacity="0.18"/>
    </filter>
  </defs>
  <path d="M 191.50 42.00 L 182.75 50.50 182.75 51.75 189.75 58.00 192.00 58.75 194.00 58.25 201.25 51.00 Z M 205.75 55.75 L 192.75 68.00 189.75 67.00 179.00 56.00 177.25 56.00 172.00 62.25 179.25 68.00 190.50 80.25 193.00 80.50 205.00 67.75 212.00 62.00 Z M 167.75 66.50 L 162.00 71.00 161.50 73.00 191.50 100.50 193.50 100.50 196.50 98.25 220.25 74.50 223.25 72.75 217.75 67.00 215.50 67.00 194.50 88.00 191.50 89.25 Z M 156.50 77.50 L 149.25 83.25 146.00 87.75 157.50 89.00 181.00 110.75 182.00 116.25 181.75 147.00 180.25 152.75 183.50 156.00 190.75 156.25 192.25 155.00 192.50 151.00 191.25 142.00 191.25 113.50 190.25 107.25 Z M 227.75 77.75 L 196.00 106.50 195.00 148.50 195.00 153.75 196.00 155.25 203.75 155.50 206.25 153.25 206.25 149.25 204.50 145.00 205.00 110.75 226.25 89.50 238.00 87.75 235.75 84.00 229.50 78.00 Z M 141.00 95.25 L 134.50 100.00 131.25 104.25 164.50 104.00 163.25 101.00 157.00 95.75 Z M 230.25 95.25 L 222.00 102.25 221.75 104.25 253.50 104.00 252.50 101.75 245.00 95.25 Z M 124.75 111.00 L 116.00 119.25 115.75 121.25 147.25 120.25 176.75 121.25 178.00 119.00 177.25 114.00 173.50 111.00 Z M 213.25 111.00 L 208.75 114.75 208.75 119.50 209.75 120.50 270.75 121.00 270.25 119.25 261.00 111.00 Z M 110.50 127.50 L 108.00 128.00 101.00 135.00 99.75 137.25 100.50 138.25 144.75 137.25 177.25 138.00 178.25 137.00 178.25 129.50 176.75 127.75 Z M 210.50 127.50 L 208.00 128.50 207.75 130.75 208.50 135.75 211.00 137.50 287.75 138.00 287.25 136.25 277.75 127.75 Z M 116.75 144.25 L 91.50 144.75 83.00 153.00 83.50 154.50 177.00 154.25 178.50 152.00 178.50 146.25 177.25 144.25 Z M 220.50 144.25 L 208.75 144.75 207.75 151.50 209.75 154.25 305.00 154.00 295.75 144.50 Z M 238.00 168.75 L 228.00 172.00 220.00 179.50 216.00 188.25 216.00 201.50 221.00 211.00 229.50 218.00 238.25 221.25 249.75 220.25 259.00 215.25 265.25 207.75 268.25 197.00 267.25 187.25 263.25 179.50 256.75 173.00 248.00 169.00 Z M 78.25 169.00 L 76.00 170.50 76.25 213.75 77.50 219.00 81.00 220.25 109.00 220.25 110.25 216.00 108.75 210.25 86.50 209.75 86.75 170.75 85.75 169.00 Z M 116.00 169.00 L 114.75 170.50 115.25 206.00 118.25 213.00 124.50 218.00 129.25 220.00 141.75 220.25 150.00 217.25 155.25 211.75 157.25 206.25 157.25 169.75 147.00 169.75 147.00 203.00 145.75 206.75 141.25 210.75 132.50 211.00 127.25 207.75 125.50 203.25 125.75 170.00 124.75 169.00 Z M 165.75 169.00 L 164.75 171.00 180.00 190.50 181.00 194.00 163.00 219.75 175.00 220.25 186.75 202.75 188.50 202.00 200.00 218.50 202.75 220.25 211.75 220.25 212.25 218.25 194.75 194.50 202.25 182.50 211.25 171.00 211.25 169.50 200.25 169.25 187.75 185.75 177.00 170.00 Z M 276.75 169.25 L 275.50 170.25 275.25 173.50 276.00 218.50 278.25 220.25 286.25 220.00 286.25 203.00 290.25 201.75 293.75 203.00 303.50 219.25 305.50 220.25 314.25 220.25 314.25 218.25 303.25 201.50 303.25 200.00 310.75 194.00 313.00 189.50 313.25 181.50 311.00 176.25 308.00 173.25 301.50 170.00 Z M 240.00 177.50 L 246.75 178.25 250.75 180.25 255.25 185.50 257.00 190.50 257.50 196.00 255.00 203.75 252.00 207.75 246.00 211.00 240.25 211.50 234.00 209.75 229.25 205.50 226.25 198.50 226.50 190.25 229.25 183.50 233.75 179.50 Z M 288.00 178.00 L 297.50 178.25 301.75 180.25 303.25 184.25 302.00 189.75 297.75 193.00 286.50 193.75 286.25 178.50 Z M 144.75 234.75 L 140.00 238.25 140.00 241.75 141.50 244.25 146.75 246.25 151.00 243.25 151.75 240.00 148.75 235.25 Z M 236.25 234.75 L 233.00 237.00 232.25 240.75 235.75 245.25 240.50 245.50 243.25 242.75 243.25 237.75 240.50 235.00 Z" fill="url(#gold)" fill-rule="evenodd" filter="url(#softGlow)"/>
  <path d="M 228.00 78.00 L 208.00 95.50 205.00 100.00 203.50 99.75 198.25 104.00 198.00 105.75 195.75 107.50 196.00 145.75 195.00 153.00 197.00 155.50 203.25 155.50 204.50 152.00 205.00 110.75 211.75 103.50 217.00 99.75 220.75 94.75 224.25 92.50 225.25 90.25 228.00 88.50 236.00 88.25 237.00 86.50 230.25 78.75 Z M 158.50 78.50 L 154.25 79.25 149.25 83.25 147.75 85.00 148.50 88.00 155.00 87.25 162.00 92.00 165.50 96.75 167.75 97.50 167.25 98.50 171.00 100.50 172.50 103.25 181.50 111.25 182.75 125.25 181.75 129.00 182.00 154.25 183.00 155.75 190.00 156.25 191.75 151.25 190.50 108.25 187.00 104.00 183.00 102.00 180.00 98.00 177.50 97.50 167.25 86.50 162.25 83.75 162.25 82.00 Z" fill="url(#blue)" fill-rule="evenodd"/>
</svg>
